<?xml version="1.0"?>
<svg xmlns="http://www.w3.org/2000/svg" xmlns:xlink="http://www.w3.org/1999/xlink" xmlns:svgjs="http://svgjs.com/svgjs" version="1.1" width="512" height="512" x="0" y="0" viewBox="0 0 512 512" style="enable-background:new 0 0 512 512" xml:space="preserve" class=""><g><g xmlns="http://www.w3.org/2000/svg"><path d="m361.71 115.148h-91.176c-4.143 0-7.5 3.358-7.5 7.5s3.357 7.5 7.5 7.5h91.176c4.143 0 7.5-3.358 7.5-7.5s-3.357-7.5-7.5-7.5z" fill="#ffffff" data-original="#000000" style="" class=""/><path d="m361.71 148.319h-131.212c-4.143 0-7.5 3.358-7.5 7.5s3.357 7.5 7.5 7.5h131.212c4.143 0 7.5-3.358 7.5-7.5s-3.357-7.5-7.5-7.5z" fill="#ffffff" data-original="#000000" style="" class=""/><path d="m361.71 181.489h-131.212c-4.143 0-7.5 3.358-7.5 7.5s3.357 7.5 7.5 7.5h131.212c4.143 0 7.5-3.358 7.5-7.5s-3.357-7.5-7.5-7.5z" fill="#ffffff" data-original="#000000" style="" class=""/><path d="m316.122 229.659c4.143 0 7.5-3.358 7.5-7.5s-3.357-7.5-7.5-7.5h-85.624c-4.143 0-7.5 3.358-7.5 7.5s3.357 7.5 7.5 7.5z" fill="#ffffff" data-original="#000000" style="" class=""/><path d="m138.501 262.83h223.209c4.143 0 7.5-3.358 7.5-7.5s-3.357-7.5-7.5-7.5h-223.209c-4.143 0-7.5 3.358-7.5 7.5s3.357 7.5 7.5 7.5z" fill="#ffffff" data-original="#000000" style="" class=""/><path d="m283.84 329.17c4.143 0 7.5-3.358 7.5-7.5s-3.357-7.5-7.5-7.5h-185.376c-4.143 0-7.5 3.358-7.5 7.5s3.357 7.5 7.5 7.5z" fill="#ffffff" data-original="#000000" style="" class=""/><path d="m208.049 214.709v-84.61c0-8.244-6.707-14.951-14.951-14.951h-78.559c-8.243 0-14.95 6.707-14.95 14.951v84.61c0 8.244 6.707 14.95 14.95 14.95h78.559c8.244 0 14.951-6.706 14.951-14.95zm-93.51-84.561 78.51-.049.053 84.56-78.513.05z" fill="#ffffff" data-original="#000000" style="" class=""/><path d="m369.21 53.612c0-5.095-4.145-9.24-9.239-9.24h-259.767c-5.095 0-9.24 4.145-9.24 9.24v32.467c0 5.095 4.146 9.239 9.24 9.239h259.767c5.095 0 9.239-4.145 9.239-9.239zm-15 26.706h-248.246v-20.945h248.246z" fill="#ffffff" data-original="#000000" style="" class=""/><path d="m404.025 443.62-29.568-4.928c-4.821-.803-9.709-1.208-14.598-1.208h-114.635c-4.143 0-7.5 3.358-7.5 7.5s3.357 7.5 7.5 7.5h28.937v18.772h-103.7v-18.772h39.763c4.143 0 7.5-3.358 7.5-7.5s-3.357-7.5-7.5-7.5h-78.8c-2.139 0-4.107.744-5.659 1.987h-18.816c-8.121 0-14.728 6.606-14.728 14.727v15.346c0 8.12 6.606 14.727 14.728 14.727h18.817c1.552 1.242 3.52 1.986 5.658 1.986h7.482v10.597c0 8.352 6.795 15.147 15.146 15.147h71.078c4.143 0 7.5-3.358 7.5-7.5s-3.357-7.5-7.5-7.5h-71.078c-.081 0-.146-.066-.146-.147v-10.597h205.953c5.009 0 9.888-.424 14.599-1.208l29.909-4.985c10.009-1.668 16.691-10.859 15.211-20.924-1.165-7.927-7.415-14.164-15.553-15.52zm-296.804 10.851h15.131v14.799h-15.131zm30.131-1.987h18.109v18.772h-18.109zm151.808 0h69.927v18.772h-69.927zm112.74 12.783-27.813 4.636v-16.065l27.473 4.579c1.634.272 2.971 1.494 3.179 2.904.279 1.901-.968 3.635-2.839 3.946z" fill="#ffffff" data-original="#000000" style="" class=""/><path d="m446.914 47.826h-5.012v-3.012c0-11.525-9.376-20.901-20.901-20.901h-5.012v-3.012c0-11.525-9.376-20.901-20.901-20.901h-330.005c-11.522 0-20.897 9.375-20.897 20.898v9.984c0 4.142 3.357 7.5 7.5 7.5s7.5-3.358 7.5-7.5v-9.984c0-3.252 2.646-5.898 5.897-5.898h330.005c3.254 0 5.901 2.647 5.901 5.901v222.671c0 20.11-13.802 37.056-32.432 41.864-1.172-2.615-3.796-4.436-6.847-4.436h-263.246c-4.143 0-7.5 3.358-7.5 7.5s3.357 7.5 7.5 7.5h234.373c-2.265 3.34-3.59 7.368-3.59 11.699v7.615c0 23.836-19.393 43.229-43.229 43.229h-220.935c-3.252 0-5.897-2.646-5.897-5.898v-286.763c0-4.142-3.357-7.5-7.5-7.5s-7.5 3.358-7.5 7.5v286.763c0 11.523 9.375 20.898 20.897 20.898h3.015v5.015c0 11.523 9.375 20.898 20.898 20.898h3.015v5.015c0 11.523 9.375 20.898 20.898 20.898h334.008c11.522 0 20.897-9.375 20.897-20.897v-335.745c0-11.525-9.376-20.901-20.9-20.901zm-53.315 241.61c-11.02 28.2-33.517 50.697-61.717 61.717 7.744-9.888 12.365-22.333 12.365-35.838v-7.615c0-3.252 2.646-5.898 5.898-5.898h7.614c13.506-.001 25.951-4.622 35.84-12.366zm59.215 115.035c0 3.252-2.646 5.897-5.897 5.897h-334.008c-3.252 0-5.898-2.646-5.898-5.898v-5.015h313.993c11.523 0 20.898-9.375 20.898-20.898v-109.933c0-4.142-3.357-7.5-7.5-7.5s-7.5 3.358-7.5 7.5v109.935c0 3.252-2.646 5.898-5.898 5.898h-332.008c-3.252 0-5.898-2.646-5.898-5.898v-5.015h209.422c68.081 0 123.47-55.388 123.47-123.469v-211.162h5.012c3.254 0 5.901 2.647 5.901 5.901v188.81c0 4.142 3.357 7.5 7.5 7.5s7.5-3.358 7.5-7.5v-170.798h5.012c3.254 0 5.9 2.647 5.9 5.901v335.744z" fill="#ffffff" data-original="#000000" style="" class=""/></g></g></svg>
